<svg xmlns="http://www.w3.org/2000/svg" viewBox="0 0 110 24"><defs></defs><path style="fill-rule:evenodd;" d="M1924.581,1423.158a.553.553,0,0,1-.416.149c-.9-.005-1.793-.005-2.461-.005l-2.579.005h-3.679s.005,4.362,0,4.367h8.1c.468,0,.591.123.591.606v.827c0,.508-.118.632-.611.632h-8.082c0,.021.005.041.005.062l-.005,1.839c0,.786,0,1.572.005,2.358v.123l.1-.005h8.534c.493.005.611.128.611.632v.827c0,.483-.118.606-.586.606h-9.443a1.12,1.12,0,0,1-1.239-1.269v-12.4a1.146,1.146,0,0,1,1.259-1.279h9.418c.468,0,.591.129.591.607v.287c-.005.206-.005.411.005.611A.6.6,0,0,1,1924.581,1423.158Zm-20.9,13.106a11.738,11.738,0,0,1-1.675.119h0c-.261,0-.534-.01-.812-.026a13.152,13.152,0,0,1-5.061-1.331.453.453,0,0,1-.251-.262.5.5,0,0,1,.036-.365c.169-.354.318-.678.452-1a.437.437,0,0,1,.411-.314.549.549,0,0,1,.257.072,10.455,10.455,0,0,0,2.857.961,11.741,11.741,0,0,0,2.107.19,10.917,10.917,0,0,0,1.156-.057,6.058,6.058,0,0,0,2.281-.627,2.248,2.248,0,0,0,1.146-1.156,1.768,1.768,0,0,0-.755-2.157,5.254,5.254,0,0,0-1.886-.622c-.647-.113-1.31-.2-1.947-.267-.529-.062-1.068-.123-1.6-.211-.077-.01-.159-.026-.237-.036a7.167,7.167,0,0,1-2.075-.539,3.176,3.176,0,0,1-2.066-3.268,3.77,3.77,0,0,1,1.963-3.267,7.475,7.475,0,0,1,3.309-1.044c.288-.03.565-.036.889-.04h.021c.113,0,.232-.005.36-.01h.01a13.631,13.631,0,0,1,5.087,1.027.548.548,0,0,1,.339.3.575.575,0,0,1-.041.431c-.123.257-.231.529-.334.791l-.052.128a.432.432,0,0,1-.406.314.513.513,0,0,1-.216-.052,11.011,11.011,0,0,0-3.242-.843c-.519-.051-.976-.077-1.4-.077a7.21,7.21,0,0,0-2.713.473,2.568,2.568,0,0,0-1.207.873,1.8,1.8,0,0,0-.087,1.9,1.869,1.869,0,0,0,.9.663,5.884,5.884,0,0,0,1.5.334l.149.016c.406.056.822.1,1.222.149a26.238,26.238,0,0,1,3.232.509,5.3,5.3,0,0,1,2.353,1.207,3.292,3.292,0,0,1,1.048,2.153,3.791,3.791,0,0,1-1.886,3.853A7.393,7.393,0,0,1,1903.681,1436.264Zm-11.308-.082-1.218.005h-.005a.541.541,0,0,1-.519-.38c-.354-.863-.714-1.747-1.063-2.594l-1.053-2.559q-1.233-3-2.467-6l-3.56,8.529c-.108.267-.344.832-.344.832-.252.591-.5,1.2-.75,1.808a.533.533,0,0,1-.529.365l-1.2-.005a.441.441,0,0,1-.426-.159.457.457,0,0,1,.026-.457c.519-1.254,1.043-2.5,1.562-3.751l4.151-9.967a1.488,1.488,0,0,1,.391-.586,1.1,1.1,0,0,1,.714-.273.986.986,0,0,1,.914.6c.236.509.452,1.033.657,1.536.067.159.129.313.191.473q1.957,4.727,3.9,9.453l.832,2.014c.062.154.129.313.205.5a.478.478,0,0,1,.016.458A.452.452,0,0,1,1892.372,1436.182Zm-20.649.077a6.689,6.689,0,0,1-1.305.144c-.051,0-.1-.005-.144-.005h-.082a7.239,7.239,0,0,1-4.9-1.952,7.758,7.758,0,0,1-2.451-4.706,7.564,7.564,0,0,1,2.266-6.695,7.05,7.05,0,0,1,4.486-2.029c.211-.016.421-.026.627-.026a7.267,7.267,0,0,1,5.122,2.168,2.85,2.85,0,0,1,.241.257c.067.078.123.144.185.206a.452.452,0,0,1,.159.349.482.482,0,0,1-.2.349l-.01.005c-.262.226-.529.453-.786.694a.483.483,0,0,1-.314.139.448.448,0,0,1-.339-.19,5.463,5.463,0,0,0-1.1-1.023,5.167,5.167,0,0,0-2.985-.945,5.464,5.464,0,0,0-5.374,4.794,5.739,5.739,0,0,0,.622,3.606,5.267,5.267,0,0,0,3.992,2.913,5.935,5.935,0,0,0,.889.067,5.3,5.3,0,0,0,3.55-1.346,3.717,3.717,0,0,0,.694-.8.462.462,0,0,1,.385-.247.544.544,0,0,1,.339.144c.3.246.55.442.792.621a.478.478,0,0,1,.215.314.494.494,0,0,1-.118.375A7.129,7.129,0,0,1,1871.723,1436.259Zm-21.641-10.753-.524.714c-.591.807-1.2,1.649-1.809,2.466-.01.01-.016.021-.021.026s.01.015.021.026c1.531,2.086,3.083,4.213,4.583,6.268l.35.483a.58.58,0,0,1,.139.468.338.338,0,0,1-.349.221c-.021,0-.057.005-.082.005h-.308c-.313,0-.837,0-.935.005h-.026a.675.675,0,0,1-.575-.3c-1.1-1.526-2.235-3.077-3.329-4.578l-.683-.94-.668.92c-1.1,1.505-2.23,3.062-3.345,4.6a.668.668,0,0,1-.575.3h-.026c-.092-.005-.621-.005-.935-.005h-.308c-.026,0-.062-.005-.077-.005a.337.337,0,0,1-.349-.221.6.6,0,0,1,.139-.473l.375-.519c1.495-2.039,3.036-4.151,4.557-6.227a.03.03,0,0,0,.015-.026.03.03,0,0,0-.015-.026c-.606-.817-1.223-1.659-1.814-2.466l-.519-.714q-1.31-1.8-2.62-3.586a.464.464,0,0,1-.123-.463.338.338,0,0,1,.252-.211c.07-.008.14-.014.21-.015h.139c.093,0,.185,0,.283,0h.863a.763.763,0,0,1,.576.365c1.069,1.479,2.184,3.011,3.17,4.367l.8,1.094.8-1.094c1.038-1.428,2.112-2.9,3.17-4.367a.764.764,0,0,1,.57-.365h.868c.093,0,.185,0,.283,0h.139c.071,0,.141.007.211.015a.332.332,0,0,1,.247.211.461.461,0,0,1-.123.467l-2.615,3.581Zm-18.357,10.1a1.141,1.141,0,0,1-1.028.781,1.065,1.065,0,0,1-.678-.257,1.431,1.431,0,0,1-.411-.606l-1.973-4.711-3.725-8.909a.512.512,0,0,1-.036-.5.471.471,0,0,1,.447-.165h.056c.1,0,.2,0,.288.005h.288c.164,0,.3-.005.421-.005h.031a.554.554,0,0,1,.55.38c.391.935.786,1.881,1.172,2.795l.473,1.12s2.507,5.97,3.083,7.332c.1-.237.19-.457.283-.684l.509-1.223c1.264-3.052,2.569-6.206,3.853-9.32a.585.585,0,0,1,.58-.406.109.109,0,0,1,.036,0c.118.005.251.005.411.005h.277c.1,0,.19-.005.283-.005h.077a.488.488,0,0,1,.447.169.494.494,0,0,1-.026.478Z" transform="translate(-1819.49 -1416.306)"></path></svg>